<?xml version="1.0" encoding="utf-8"?>
<?xml-stylesheet type="text/css" href="tackapi_style.css"?>
<!-- Generator: Adobe Illustrator 19.0.0, SVG Export Plug-In . SVG Version: 6.00 Build 0)  -->
<svg version="1.0" id="Layer_1" xmlns="http://www.w3.org/2000/svg" xmlns:xlink="http://www.w3.org/1999/xlink" x="0px" y="0px"
	 viewBox="0 0 841.9 595.3" enable-background="new 0 0 841.9 595.3" xml:space="presererve">


<g>	
	<g id="t1_d1">
		<rect id="XMLID_1100_" x="327.6" y="306.9" fill="#F7B426" stroke="#5B5C5C" stroke-width="0.677" stroke-miterlimit="10" width="4" height="154.1"/>
		<rect id="XMLID_1063_" x="529.2" y="306.9" fill="#F7B426" stroke="#5B5C5C" stroke-width="0.677" stroke-miterlimit="10" width="4" height="154.1"/>
	</g>
	<g id="t1_d2">
		<rect id="XMLID_1099_" x="360.4" y="360.4" fill="#EE2A7B" stroke="#5B5C5C" stroke-width="0.677" stroke-miterlimit="10" width="4.4" height="100.5"/>
		<rect id="XMLID_1062_" x="496.1" y="360.4" fill="#EE2A7B" stroke="#5B5C5C" stroke-width="0.677" stroke-miterlimit="10" width="4.4" height="100.5"/>
	</g>
	<g id="t1_d3">
		<rect id="XMLID_1098_" x="364.7" y="360.4" fill="#E8F4FC" stroke="#5B5C5C" stroke-width="0.677" stroke-miterlimit="10" width="4.4" height="100.5"/>
		<rect id="XMLID_1061_" x="491.7" y="360.4" fill="#E8F4FC" stroke="#5B5C5C" stroke-width="0.677" stroke-miterlimit="10" width="4.4" height="100.5"/>
	</g>
	<g id="t1_d4">
		<rect id="XMLID_1097_" x="369.1" y="357.7" fill="#4B82C0" stroke="#5B5C5C" stroke-width="0.677" stroke-miterlimit="10" width="6.4" height="103.3"/>
		<rect id="XMLID_1060_" x="485.3" y="357.7" fill="#4B82C0" stroke="#5B5C5C" stroke-width="0.677" stroke-miterlimit="10" width="6.4" height="103.3"/>
	</g>
	<g id="t1_d5">
	
		<rect id="XMLID_1096_" x="375.5" y="365.6" fill="#EADC31" stroke="#5B5C5C" stroke-width="0.677" stroke-miterlimit="10" width="7.9" height="101.4"/>
		<rect id="XMLID_1059_" x="477.4" y="365.6" fill="#EADC31" stroke="#5B5C5C" stroke-width="0.677" stroke-miterlimit="10" width="7.9" height="101.4"/>
	</g>
	<g id="t1_d6">
		<path id="XMLID_1077_" fill="#AFC836" stroke="#5B5C5C" stroke-width="0.677" stroke-miterlimit="10" d="M375.5,271.3
		c0,15.1,0,30.1,0,45.2c0-3.5,0.1-7,0.5-10.4c0.5-4.4,1.6-8.8,3.3-13c2.1-5.1,5.2-10,9-13.9c3.1-3.1,6.6-5.7,10.4-8
		C390.9,271.3,383.2,271.3,375.5,271.3z"/>
		<path id="XMLID_1045_" fill="#AFC836" stroke="#5B5C5C" stroke-width="0.677" stroke-miterlimit="10" d="M485.3,271.3
		c0,15.1,0,30.1,0,45.2c0-3.5-0.1-7-0.5-10.4c-0.5-4.4-1.6-8.8-3.3-13c-2.1-5.1-5.2-10-9-13.9c-3.1-3.1-6.6-5.7-10.4-8
		C469.9,271.3,477.6,271.3,485.3,271.3z"/>
	</g>
		<path id="XMLID_1044_" fill="#F9F1D3" stroke="#5B5C5C" stroke-width="0.677" stroke-miterlimit="10" d="M383.4,343.6
		c15.7-23.9,31.3-47.7,47-71.6c15.7,23.9,31.3,47.7,47,71.6c0-10.8,0-21.7,0-32.5c-0.4-2.4-0.9-4.8-1.4-7.2c-0.9-3.9-2.1-7.7-4-11.3
		c-2.1-4.2-5.1-8-8.7-11.1c-3.2-2.7-6.9-4.8-10.7-6.7c-3.1-1.6-6.2-3-9.4-4c-2.2-0.7-4.5-1.2-6.8-1.5c-2-0.3-4-0.4-6-0.5
		c-2,0.1-4,0.3-6,0.5c-2.3,0.3-4.6,0.8-6.8,1.5c-3.3,1-6.4,2.5-9.4,4c-3.8,1.9-7.5,4-10.7,6.7c-3.6,3-6.5,6.9-8.7,11.1
		c-1.8,3.6-3,7.4-4,11.3c-0.6,2.4-1,4.8-1.4,7.2C383.4,322,383.4,332.8,383.4,343.6z"/>



	<line id="XMLID_1153_" fill="none" stroke="#5B5C5C" stroke-width="0.6771" stroke-linecap="round" stroke-linejoin="round" stroke-miterlimit="10" x1="383.4" y1="473.9" x2="389.7" y2="466.5"/>

	<line id="XMLID_1151_" fill="none" stroke="#5B5C5C" stroke-width="0.6771" stroke-linecap="round" stroke-linejoin="round" stroke-miterlimit="10" x1="389.7" y1="466.5" x2="404" y2="466.5"/>
	
	<line id="XMLID_1150_" fill="none" stroke="#5B5C5C" stroke-width="0.6771" stroke-linecap="round" stroke-linejoin="round" stroke-miterlimit="10" x1="404" y1="466.5" x2="404" y2="395.6"/>
	
	<line id="XMLID_1149_" fill="none" stroke="#5B5C5C" stroke-width="0.6771" stroke-linecap="round" stroke-linejoin="round" stroke-miterlimit="10" x1="383.4" y1="473.9" x2="327.6" y2="473.9"/>
	
	<line id="XMLID_1148_" fill="none" stroke="#5B5C5C" stroke-width="0.6771" stroke-linecap="round" stroke-linejoin="round" stroke-miterlimit="10" x1="383.4" y1="466.9" x2="383.4" y2="473.9"/>
	
	<line id="XMLID_1147_" fill="none" stroke="#5B5C5C" stroke-width="0.6771" stroke-linecap="round" stroke-linejoin="round" stroke-miterlimit="10" x1="383.4" y1="466.9" x2="327.6" y2="466.9"/>
	
	<line id="XMLID_1146_" fill="none" stroke="#5B5C5C" stroke-width="0.6771" stroke-linecap="round" stroke-linejoin="round" stroke-miterlimit="10" x1="375.5" y1="461" x2="327.6" y2="461"/>
	
	<line id="XMLID_1107_" fill="none" stroke="#5B5C5C" stroke-width="0.6771" stroke-linecap="round" stroke-linejoin="round" stroke-miterlimit="10" x1="375.5" y1="365.6" x2="375.5" y2="239.6"/>
	
	<line id="XMLID_1106_" fill="none" stroke="#5B5C5C" stroke-width="0.6771" stroke-linecap="round" stroke-linejoin="round" stroke-miterlimit="10" x1="383.4" y1="365.6" x2="383.4" y2="311.2"/>
	
	<line id="XMLID_1105_" fill="none" stroke="#5B5C5C" stroke-width="0.6771" stroke-linecap="round" stroke-linejoin="round" stroke-miterlimit="10" x1="360.4" y1="261.4" x2="360.4" y2="461"/>
	
	<line id="XMLID_1104_" fill="none" stroke="#5B5C5C" stroke-width="0.6771" stroke-linecap="round" stroke-linejoin="round" stroke-miterlimit="10" x1="340.5" y1="261.4" x2="340.5" y2="461"/>
	
	<line id="XMLID_1103_" fill="none" stroke="#5B5C5C" stroke-width="0.6771" stroke-linecap="round" stroke-linejoin="round" stroke-miterlimit="10" x1="331.6" y1="261.4" x2="331.6" y2="461"/>
	
	<line id="XMLID_1102_" fill="none" stroke="#5B5C5C" stroke-width="0.6771" stroke-linecap="round" stroke-linejoin="round" stroke-miterlimit="10" x1="327.6" y1="306.9" x2="327.6" y2="195.5"/>

	<line id="XMLID_1101_" fill="none" stroke="#5B5C5C" stroke-width="0.6771" stroke-linecap="round" stroke-linejoin="round" stroke-miterlimit="10" x1="327.6" y1="195.5" x2="533.2" y2="195.5"/>

	<line id="XMLID_1095_" fill="none" stroke="#5B5C5C" stroke-width="0.6771" stroke-linecap="round" stroke-linejoin="round" stroke-miterlimit="10" x1="331.6" y1="261.4" x2="331.6" y2="200.9"/>

	<line id="XMLID_1094_" fill="none" stroke="#5B5C5C" stroke-width="0.6771" stroke-linecap="round" stroke-linejoin="round" stroke-miterlimit="10" x1="331.6" y1="200.9" x2="529.2" y2="200.9"/>
	
	<line id="XMLID_1093_" fill="none" stroke="#5B5C5C" stroke-width="0.6771" stroke-linecap="round" stroke-linejoin="round" stroke-miterlimit="10" x1="340.5" y1="261.4" x2="340.5" y2="208.3"/>

	<line id="XMLID_1092_" fill="none" stroke="#5B5C5C" stroke-width="0.6771" stroke-linecap="round" stroke-linejoin="round" stroke-miterlimit="10" x1="340.5" y1="208.3" x2="520.3" y2="208.3"/>

	<line id="XMLID_1091_" fill="none" stroke="#5B5C5C" stroke-width="0.6771" stroke-linecap="round" stroke-linejoin="round" stroke-miterlimit="10" x1="360.4" y1="261.4" x2="360.4" y2="224.5"/>
	
	<line id="XMLID_1090_" fill="none" stroke="#5B5C5C" stroke-width="0.6771" stroke-linecap="round" stroke-linejoin="round" stroke-miterlimit="10" x1="360.4" y1="224.5" x2="500.4" y2="224.5"/>
	
	<line id="XMLID_1089_" fill="none" stroke="#5B5C5C" stroke-width="0.6771" stroke-linecap="round" stroke-linejoin="round" stroke-miterlimit="10" x1="369.1" y1="233.3" x2="491.7" y2="233.3"/>

	<line id="XMLID_1088_" fill="none" stroke="#5B5C5C" stroke-width="0.6771" stroke-linecap="round" stroke-linejoin="round" stroke-miterlimit="10" x1="375.5" y1="239.6" x2="485.3" y2="239.6"/>
	
	<line id="XMLID_1087_" fill="none" stroke="#5B5C5C" stroke-width="0.6771" stroke-linecap="round" stroke-linejoin="round" stroke-miterlimit="10" x1="369.1" y1="360.4" x2="369.1" y2="233.3"/>
	
	<line id="XMLID_1086_" fill="none" stroke="#5B5C5C" stroke-width="0.6771" stroke-linecap="round" stroke-linejoin="round" stroke-miterlimit="10" x1="389.7" y1="466.5" x2="389.7" y2="395.6"/>
	
	<path id="XMLID_1085_" fill="none" stroke="#5B5C5C" stroke-width="0.6771" stroke-linecap="round" stroke-linejoin="round" stroke-miterlimit="10" d="
		M404,395.6c0.8-0.7,1.6-1.3,2.4-2c0.8-0.6,1.5-1.2,2.3-1.7c1.1-0.7,2.3-1.4,3.5-2c1.2-0.6,2.5-1.2,3.7-1.7c1.5-0.5,3-0.9,4.6-1.3
		c1.5-0.4,2.9-0.8,4.4-1c1.1-0.2,2.2-0.3,3.3-0.3c0.7,0,1.4-0.1,2.2-0.1"/>
	
	<path id="XMLID_1084_" fill="none" stroke="#5B5C5C" stroke-width="0.6771" stroke-linecap="round" stroke-linejoin="round" stroke-miterlimit="10" d="
		M389.7,395.6c0.1-1.5,0.2-2.9,0.5-4.4c0.5-2.1,1.6-4.1,3-5.7c1.6-1.9,3.6-3.3,5.7-4.7c1.2-0.8,2.4-1.5,3.6-2.2
		c1.6-0.9,3.1-1.8,4.8-2.5c1.4-0.6,2.7-1.2,4.1-1.7c1.4-0.5,2.7-1,4.1-1.5c1.3-0.4,2.7-0.8,4.1-1.1c1.7-0.4,3.3-0.7,5-0.9
		c1.7-0.2,3.3-0.2,5-0.2c0.2,0,0.4,0,0.6,0"/>
	
	<line id="XMLID_1083_" fill="none" stroke="#5B5C5C" stroke-width="0.6771" stroke-linecap="round" stroke-linejoin="round" stroke-miterlimit="10" x1="383.4" y1="343.6" x2="430.4" y2="272"/>
	
	<line id="XMLID_1082_" fill="none" stroke="#5B5C5C" stroke-width="0.6771" stroke-linecap="round" stroke-linejoin="round" stroke-miterlimit="10" x1="383.4" y1="343.6" x2="383.4" y2="311.2"/>
	
	<path id="XMLID_1081_" fill="none" stroke="#5B5C5C" stroke-width="0.6771" stroke-linecap="round" stroke-linejoin="round" stroke-miterlimit="10" d="
		M375.5,316.5c0-3.5,0.1-7,0.5-10.4c0.5-4.4,1.6-8.8,3.3-13c2.1-5.1,5.2-10,9-13.9c3.5-3.6,7.8-6.4,12.1-9c2.5-1.5,5-2.9,7.6-4.1
		c3.8-1.8,7.9-3.3,12-4c3.4-0.6,6.9-0.7,10.4-0.7"/>
	
	<line id="XMLID_1080_" fill="none" stroke="#5B5C5C" stroke-width="0.6771" stroke-linecap="round" stroke-linejoin="round" stroke-miterlimit="10" x1="375.5" y1="271.3" x2="398.7" y2="271.3"/>
	
	<path id="XMLID_1079_" fill="none" stroke="#5B5C5C" stroke-width="0.6771" stroke-linecap="round" stroke-linejoin="round" stroke-miterlimit="10" d="
		M383.4,311.2c0.4-2.4,0.9-4.8,1.4-7.2c0.9-3.9,2.1-7.7,4-11.3c2.1-4.2,5.1-8,8.7-11.1c3.2-2.7,6.9-4.8,10.7-6.7
		c3.1-1.6,6.2-3,9.4-4c2.2-0.7,4.5-1.2,6.8-1.5c2-0.3,4-0.4,6-0.5"/>
	
	<line id="XMLID_1078_" fill="none" stroke="#5B5C5C" stroke-width="0.6771" stroke-linecap="round" stroke-linejoin="round" stroke-miterlimit="10" x1="327.6" y1="461" x2="327.6" y2="473.9"/>
	
	<line id="XMLID_1076_" fill="none" stroke="#5B5C5C" stroke-width="0.6771" stroke-linecap="round" stroke-linejoin="round" stroke-miterlimit="10" x1="477.4" y1="473.9" x2="471.1" y2="466.5"/>
	
	<line id="XMLID_1075_" fill="none" stroke="#5B5C5C" stroke-width="0.6771" stroke-linecap="round" stroke-linejoin="round" stroke-miterlimit="10" x1="471.1" y1="466.5" x2="456.8" y2="466.5"/>
	
	<line id="XMLID_1074_" fill="none" stroke="#5B5C5C" stroke-width="0.6771" stroke-linecap="round" stroke-linejoin="round" stroke-miterlimit="10" x1="456.8" y1="466.5" x2="456.8" y2="395.6"/>
	
	<line id="XMLID_1073_" fill="none" stroke="#5B5C5C" stroke-width="0.6771" stroke-linecap="round" stroke-linejoin="round" stroke-miterlimit="10" x1="477.4" y1="473.9" x2="533.2" y2="473.9"/>
	
	<line id="XMLID_1072_" fill="none" stroke="#5B5C5C" stroke-width="0.6771" stroke-linecap="round" stroke-linejoin="round" stroke-miterlimit="10" x1="477.4" y1="466.9" x2="477.4" y2="473.9"/>
	
	<line id="XMLID_1071_" fill="none" stroke="#5B5C5C" stroke-width="0.6771" stroke-linecap="round" stroke-linejoin="round" stroke-miterlimit="10" x1="477.4" y1="466.9" x2="533.2" y2="466.9"/>
	
	<line id="XMLID_1070_" fill="none" stroke="#5B5C5C" stroke-width="0.6771" stroke-linecap="round" stroke-linejoin="round" stroke-miterlimit="10" x1="485.3" y1="461" x2="533.2" y2="461"/>
	
	<line id="XMLID_1069_" fill="none" stroke="#5B5C5C" stroke-width="0.6771" stroke-linecap="round" stroke-linejoin="round" stroke-miterlimit="10" x1="485.3" y1="365.6" x2="485.3" y2="239.6"/>
	
	<line id="XMLID_1068_" fill="none" stroke="#5B5C5C" stroke-width="0.6771" stroke-linecap="round" stroke-linejoin="round" stroke-miterlimit="10" x1="477.4" y1="365.6" x2="477.4" y2="311.2"/>
	
	<line id="XMLID_1067_" fill="none" stroke="#5B5C5C" stroke-width="0.6771" stroke-linecap="round" stroke-linejoin="round" stroke-miterlimit="10" x1="500.4" y1="261.4" x2="500.4" y2="461"/>
	
	<line id="XMLID_1066_" fill="none" stroke="#5B5C5C" stroke-width="0.6771" stroke-linecap="round" stroke-linejoin="round" stroke-miterlimit="10" x1="520.3" y1="261.4" x2="520.3" y2="461"/>
	
	<line id="XMLID_1065_" fill="none" stroke="#5B5C5C" stroke-width="0.6771" stroke-linecap="round" stroke-linejoin="round" stroke-miterlimit="10" x1="529.2" y1="261.4" x2="529.2" y2="461"/>

	<line id="XMLID_1064_" fill="none" stroke="#5B5C5C" stroke-width="0.6771" stroke-linecap="round" stroke-linejoin="round" stroke-miterlimit="10" x1="533.2" y1="306.9" x2="533.2" y2="195.5"/>
	
	<line id="XMLID_1058_" fill="none" stroke="#5B5C5C" stroke-width="0.6771" stroke-linecap="round" stroke-linejoin="round" stroke-miterlimit="10" x1="529.2" y1="261.4" x2="529.2" y2="200.9"/>
	
	<line id="XMLID_1057_" fill="none" stroke="#5B5C5C" stroke-width="0.6771" stroke-linecap="round" stroke-linejoin="round" stroke-miterlimit="10" x1="520.3" y1="261.4" x2="520.3" y2="208.3"/>

	<line id="XMLID_1056_" fill="none" stroke="#5B5C5C" stroke-width="0.6771" stroke-linecap="round" stroke-linejoin="round" stroke-miterlimit="10" x1="500.4" y1="261.4" x2="500.4" y2="224.5"/>

	<line id="XMLID_1055_" fill="none" stroke="#5B5C5C" stroke-width="0.6771" stroke-linecap="round" stroke-linejoin="round" stroke-miterlimit="10" x1="491.7" y1="360.4" x2="491.7" y2="233.3"/>

	<line id="XMLID_1054_" fill="none" stroke="#5B5C5C" stroke-width="0.6771" stroke-linecap="round" stroke-linejoin="round" stroke-miterlimit="10" x1="471.1" y1="466.5" x2="471.1" y2="395.6"/>

	<path id="XMLID_1053_" fill="none" stroke="#5B5C5C" stroke-width="0.6771" stroke-linecap="round" stroke-linejoin="round" stroke-miterlimit="10" d="
		M456.8,395.6c-0.8-0.7-1.6-1.3-2.4-2c-0.8-0.6-1.5-1.2-2.3-1.7c-1.1-0.7-2.3-1.4-3.5-2c-1.2-0.6-2.5-1.2-3.7-1.7
		c-1.5-0.5-3-0.9-4.6-1.3c-1.5-0.4-2.9-0.8-4.4-1c-1.1-0.2-2.2-0.3-3.3-0.3c-0.7,0-1.4-0.1-2.2-0.1"/>

	<path id="XMLID_1052_" fill="none" stroke="#5B5C5C" stroke-width="0.6771" stroke-linecap="round" stroke-linejoin="round" stroke-miterlimit="10" d="
		M471.1,395.6c-0.1-1.5-0.2-2.9-0.5-4.4c-0.5-2.1-1.6-4.1-3-5.7c-1.6-1.9-3.6-3.3-5.7-4.7c-1.2-0.8-2.4-1.5-3.6-2.2
		c-1.6-0.9-3.1-1.8-4.8-2.5c-1.4-0.6-2.7-1.2-4.1-1.7c-1.4-0.5-2.7-1-4.1-1.5c-1.3-0.4-2.7-0.8-4.1-1.1c-1.7-0.4-3.3-0.7-5-0.9
		c-1.7-0.2-3.3-0.2-5-0.2c-0.2,0-0.4,0-0.6,0"/>

	<line id="XMLID_1051_" fill="none" stroke="#5B5C5C" stroke-width="0.6771" stroke-linecap="round" stroke-linejoin="round" stroke-miterlimit="10" x1="477.4" y1="343.6" x2="430.4" y2="272"/>

	<line id="XMLID_1050_" fill="none" stroke="#5B5C5C" stroke-width="0.6771" stroke-linecap="round" stroke-linejoin="round" stroke-miterlimit="10" x1="477.4" y1="343.6" x2="477.4" y2="311.2"/>

	<path id="XMLID_1049_" fill="none" stroke="#5B5C5C" stroke-width="0.6771" stroke-linecap="round" stroke-linejoin="round" stroke-miterlimit="10" d="
		M485.3,316.5c0-3.5-0.1-7-0.5-10.4c-0.5-4.4-1.6-8.8-3.3-13c-2.1-5.1-5.2-10-9-13.9c-3.5-3.6-7.8-6.4-12.1-9
		c-2.5-1.5-5-2.9-7.6-4.1c-3.8-1.8-7.9-3.3-12-4c-3.4-0.6-6.9-0.7-10.4-0.7"/>

	<line id="XMLID_1048_" fill="none" stroke="#5B5C5C" stroke-width="0.6771" stroke-linecap="round" stroke-linejoin="round" stroke-miterlimit="10" x1="485.3" y1="271.3" x2="462.1" y2="271.3"/>

	<path id="XMLID_1047_" fill="none" stroke="#5B5C5C" stroke-width="0.6771" stroke-linecap="round" stroke-linejoin="round" stroke-miterlimit="10" d="
		M477.4,311.2c-0.4-2.4-0.9-4.8-1.4-7.2c-0.9-3.9-2.1-7.7-4-11.3c-2.1-4.2-5.1-8-8.7-11.1c-3.2-2.7-6.9-4.8-10.7-6.7
		c-3.1-1.6-6.2-3-9.4-4c-2.2-0.7-4.5-1.2-6.8-1.5c-2-0.3-4-0.4-6-0.5"/>

	<line id="XMLID_1046_" fill="none" stroke="#5B5C5C" stroke-width="0.6771" stroke-linecap="round" stroke-linejoin="round" stroke-miterlimit="10" x1="533.2" y1="461" x2="533.2" y2="473.9"/>

	<line id="XMLID_1043_" fill="none" stroke="#5B5C5C" stroke-width="0.6771" stroke-linecap="round" stroke-linejoin="round" stroke-miterlimit="10" x1="383.4" y1="365.6" x2="477.4" y2="365.6"/>

	<line id="XMLID_1042_" fill="none" stroke="#5B5C5C" stroke-width="0.6771" stroke-linecap="round" stroke-linejoin="round" stroke-miterlimit="10" x1="383.4" y1="357.6" x2="477.4" y2="357.6"/>

	<line id="XMLID_1041_" fill="none" stroke="#5B5C5C" stroke-width="0.6771" stroke-linecap="round" stroke-linejoin="round" stroke-miterlimit="10" x1="430.4" y1="385.5" x2="430.4" y2="466.5"/>

	<line id="XMLID_1040_" fill="none" stroke="#5B5C5C" stroke-width="0.6771" stroke-linecap="round" stroke-linejoin="round" stroke-miterlimit="10" x1="430.4" y1="466.5" x2="404" y2="466.5"/>

	<line id="XMLID_1039_" fill="none" stroke="#5B5C5C" stroke-width="0.6771" stroke-linecap="round" stroke-linejoin="round" stroke-miterlimit="10" x1="430.4" y1="466.5" x2="456.8" y2="466.5"/>

</g>
</svg>
